<?xml version="1.0" standalone="no"?>
<!DOCTYPE svg PUBLIC "-//W3C//DTD SVG 20010904//EN"
 "http://www.w3.org/TR/2001/REC-SVG-20010904/DTD/svg10.dtd">
<svg version="1.0" xmlns="http://www.w3.org/2000/svg"
 width="400.000000pt" height="400.000000pt" viewBox="0 0 400.000000 400.000000"
 preserveAspectRatio="xMidYMid meet">
<metadata>
Created by potrace 1.11, written by Peter Selinger 2001-2013
</metadata>
<g transform="translate(0.000000,400.000000) scale(0.100000,-0.100000)"
fill="#000000" stroke="none">
<path d="M1305 3746 c-221 -71 -367 -328 -391 -689 l-7 -97 29 1 c55 3 64 9
64 42 0 45 29 155 55 207 31 62 99 127 165 159 45 21 69 26 135 26 69 0 87 -4
127 -28 99 -57 170 -160 237 -337 46 -123 70 -208 111 -392 l21 -98 -122 -262
c-67 -145 -141 -303 -164 -353 -23 -49 -63 -134 -89 -189 -25 -54 -46 -100
-46 -102 0 -2 -27 -60 -60 -130 -33 -69 -60 -128 -60 -129 0 -2 -29 -65 -65
-140 -36 -76 -65 -138 -65 -140 0 -1 -23 -52 -51 -111 -28 -60 -77 -165 -109
-234 -32 -69 -76 -163 -98 -210 -81 -173 -112 -243 -112 -254 0 -8 66 -11 227
-11 l227 0 41 95 c23 52 84 190 135 305 50 116 100 228 110 250 10 22 62 139
115 260 53 121 103 234 110 250 7 17 30 68 51 115 20 47 49 112 64 145 15 33
45 100 66 149 21 49 39 85 41 80 4 -14 64 -283 69 -307 14 -76 153 -691 174
-772 55 -212 128 -386 192 -457 40 -45 144 -111 193 -124 123 -31 205 -27 290
15 130 64 233 224 260 406 3 17 7 41 10 55 3 14 8 73 11 131 l6 107 -42 4
c-23 2 -43 1 -45 -2 -2 -3 -6 -26 -10 -50 -21 -153 -91 -269 -186 -309 -125
-54 -260 -17 -369 102 -84 91 -178 352 -256 707 -4 19 -9 40 -10 45 -1 6 -16
73 -34 150 -17 77 -33 149 -36 160 -2 11 -25 112 -50 225 -25 113 -47 212 -49
220 -14 69 -117 508 -162 685 -69 275 -130 463 -185 568 -56 106 -153 207
-234 243 -69 30 -170 39 -229 20z"/>
</g>
</svg>
